<svg version="1.1" viewBox="0.00 0.00 1024.00 1024.00" xmlns="http://www.w3.org/2000/svg">
  <defs></defs>
  <path fill="#ffffff" d="M 725.641 630.765 C 723.269 644.599 733.223 656.986 733.696 669.965 C 733.921 676.157 731.076 680.868 725.156 684.101 C 716.081 689.025 707.003 693.649 697.928 697.976 C 689.226 702.106 681.73 700.849 675.437 694.209 C 668.027 686.403 661.775 677.56 655.074 668.846 C 645.712 656.676 605.098 661.275 602.52 674.18 C 600.279 685.406 597.112 696.697 593.904 708.233 C 592.089 714.824 586.005 719.317 579.172 719.124 L 541.538 718.042 C 538.882 717.972 536.442 716.57 535.048 714.313 C 526.394 700.439 523.597 680.707 521.322 664.595 C 520.829 661.111 518.178 658.325 514.721 657.657 C 505.209 655.792 495.102 654.376 486.971 648.52 C 451.649 623.082 433.597 587.052 445.235 544.346 C 445.589 542.973 444.597 541.619 443.184 541.549 C 417.373 539.983 397.605 529.277 383.879 509.435 C 383.133 508.39 382.115 507.869 380.821 507.869 C 376.42 507.869 371.969 507.932 367.468 508.054 C 326.216 509.286 290.672 477.098 276.835 440.062 C 276.311 438.67 275.406 438.334 274.112 439.054 C 245.914 455.215 214.808 459.493 180.793 451.885 C 135.326 441.702 99.333 405.598 85.943 361.697 C 75.749 328.402 79.255 296.028 96.461 264.573 C 101.645 255.063 109.031 248.163 115.297 239.733 C 119.811 233.654 124.845 230.111 131.372 226.716 C 134.106 225.284 135.889 222.524 136.072 219.444 C 136.993 204.898 141.256 189.505 148.864 173.268 C 151.375 167.946 154.672 163.236 158.75 159.132 C 164.604 153.239 167.477 146.078 174.003 140.595 C 186.435 130.126 200.176 122.58 215.218 117.956 C 219.198 116.736 222.219 114.237 224.281 110.459 C 252.005 59.211 295.532 37.142 354.861 44.255 C 356.528 44.453 358.058 44.106 359.449 43.211 C 394.584 20.645 432.814 14.715 471.977 29.372 C 475.431 30.671 477.709 33.976 477.683 37.653 L 476.938 198.221 C 476.926 200.44 478.847 202.186 481.078 201.988 C 500.201 200.32 518.35 201.279 535.534 204.861 C 537.487 205.271 538.77 207.161 538.442 209.148 L 538.218 210.268 C 538.032 211.373 537.043 212.17 535.907 212.133 C 499.503 210.939 461.72 207.621 425.803 210.865 C 372.728 215.602 331.736 259.762 331.662 314.142 C 331.636 317.526 331.599 320.831 331.551 324.065 C 331.551 325.433 330.905 326.377 329.611 326.899 C 285.786 344.578 266.541 394.968 286.16 438.979 C 298.69 467.027 319.365 486.038 348.185 496.008 C 359.635 499.962 373.511 498.731 385.931 498.506 C 387.378 498.48 388.732 499.249 389.474 500.52 C 401.757 521.83 420.693 532.549 446.279 532.672 C 474.801 532.82 502.3 533.045 528.781 533.343 C 531.755 533.365 534.428 535.119 535.608 537.819 C 536.007 538.763 535.507 539.785 534.116 540.877 C 533.489 541.385 532.71 541.661 531.914 541.661 L 458.998 541.549 C 457.555 541.549 456.462 542.171 455.716 543.413 C 453.925 546.472 452.705 549.877 452.06 553.633 C 447.335 580.462 455.033 604.955 475.147 627.11 C 486.14 639.195 500.238 646.233 517.444 648.221 C 524.865 649.079 529.305 653.815 530.088 661.089 C 531.628 675.139 534.552 688.827 538.852 702.154 C 540.069 705.951 543.592 708.528 547.58 708.531 L 577.829 708.42 C 581.234 708.42 583.423 706.79 584.394 703.534 C 588.671 689.137 589.044 665.009 596.217 657.88 C 602.129 652.01 651.753 646.99 656.341 654.003 C 663.998 665.739 672.854 676.716 682.897 686.936 C 686.004 690.092 690.856 690.722 694.646 688.465 L 721.762 672.502 C 723.693 671.365 724.686 669.126 724.223 666.944 C 721.341 653.342 712.732 640.436 714.376 626.998 C 715.81 615.302 767.925 598.007 769.168 597.906 C 772.823 597.607 776.366 598.316 779.798 600.031 C 787.406 603.863 798.816 606.332 806.175 610.061 C 810.053 612.026 839.119 581.584 832.678 574.471 C 822.432 563.159 810.482 546.424 800.087 533.418 C 798.081 530.915 813.022 499.133 822.135 489.144 L 882.628 485.267 C 885.843 485.072 888.555 482.782 889.304 479.634 L 897.211 446.738 C 898.069 443.123 896.406 439.382 893.146 437.599 C 880.812 430.811 869.253 423.11 856.668 419.175 C 837.922 413.311 841.077 366.621 856.109 358.863 C 867.399 353.018 879.171 347.163 891.429 341.295 C 896.801 338.712 898.991 334.481 897.994 328.614 L 892.288 294.935 C 891.765 291.951 890.002 290.373 886.991 290.198 C 870.979 289.201 855.054 288.109 839.213 286.915 C 830.15 286.245 823.771 282.104 820.452 273.377 C 817.197 264.724 812.944 256.171 807.697 247.716 C 804.903 243.154 805.999 237.227 810.232 233.99 C 823.585 223.771 831.604 209.299 843.726 198.071 C 845.729 196.211 845.815 193.062 843.913 191.098 C 837.449 184.358 831.616 176.801 826.419 168.42 C 818.401 155.515 809.598 159.618 798.335 164.988 C 782.595 172.522 768.086 183.115 750.592 170.844 C 747.546 168.722 729.269 153.067 727.207 150.143 C 721.873 142.498 718.218 131.196 722.359 122.133 C 726.509 112.932 730.254 103.373 733.585 93.45 C 735.364 88.107 733.077 82.246 728.139 79.502 L 702.963 65.551 C 697.935 62.747 691.632 63.852 687.858 68.2 C 675.624 82.251 664.312 93.898 653.917 103.148 C 651.515 105.305 648.837 103.614 645.897 102.328 C 635.701 97.859 630.617 97.214 619.975 93.898 C 610.536 90.96 602.333 88.639 600.991 78.345 C 599.451 66.533 597.943 53.878 596.479 40.375 C 595.9 34.931 591.514 30.667 586.034 30.232 L 554.444 27.769 C 551.869 27.568 549.479 29.052 548.55 31.425 C 542.806 46.157 539.226 61.524 532.586 76.107 C 529.826 82.225 523.374 84.723 516.958 83.977 C 513.65 83.578 511.525 81.788 510.58 78.607 C 508.988 73.358 508.354 68.078 508.678 62.754 C 508.768 61.494 510.186 60.804 511.234 61.51 C 511.334 61.579 511.427 61.658 511.514 61.748 C 514.449 64.956 516.783 68.734 518.525 73.087 C 519.148 74.702 520.588 74.802 522.851 73.384 C 523.743 72.807 524.391 71.934 524.679 70.923 C 529.106 55.731 534.201 40.947 539.972 26.575 C 543.552 17.662 550.824 14.939 559.739 16.207 C 568.567 17.501 577.456 18.147 586.407 18.147 C 597.448 18.147 604.571 27.023 606.286 37.205 C 608.35 49.488 610.118 62.132 611.584 75.138 C 611.991 78.766 652.727 92.325 654.365 89.981 C 664.547 75.361 676.706 62.717 691.624 53.281 C 694.508 51.434 698.155 51.278 701.174 52.871 C 711.441 58.29 721.862 63.997 732.429 69.991 C 756.485 83.717 740.187 109.153 732.802 126.609 C 731.037 130.786 730.975 135.123 732.616 139.626 C 733.275 141.371 760.954 165.205 762.23 165.586 C 766.855 166.954 771.32 166.454 775.62 164.093 C 786.064 158.323 796.965 153.426 808.33 149.399 C 819.407 145.445 825.04 149.696 831.977 158.573 C 839.586 168.271 846.25 177.483 851.969 186.211 C 856.034 192.44 855.662 199.712 850.253 205.271 C 842.894 212.831 815.413 236.989 818.102 246.261 C 819.389 250.696 827.427 274.309 839.288 275.576 C 852.566 276.994 865.882 277.901 879.233 278.299 C 908.102 279.157 904.485 308.995 908.698 328.241 C 911.011 338.908 904.075 346.331 895.123 350.62 C 884.855 355.592 863.633 365.118 860.026 369.94 C 857.208 373.708 852.842 403.314 858.459 406.68 C 870.786 414.065 883.586 420.356 896.168 426.746 C 907.505 432.526 910.191 443.716 906.424 455.278 C 903.541 464.204 901.175 473.095 899.338 481.946 C 897.796 489.454 893.059 493.818 885.126 495.037 C 875.552 496.503 865.53 498.57 854.99 498.321 C 824.379 497.589 810.195 529.128 817.506 537.408 C 825.514 546.509 833.059 555.77 840.145 565.196 C 845.89 572.878 848.91 583.211 842.196 591.415 C 835.26 599.872 828.957 607.715 823.286 614.951 C 811.09 630.505 792.254 618.234 779.685 610.327 C 775.553 607.731 763.64 607.906 760.465 611.616 C 760.465 611.616 726.244 627.248 725.641 630.765 Z M 180.793 321.975 C 179.028 319.689 176.8 319.066 174.116 320.111 C 172.203 320.857 170.845 322.461 170.05 324.922 C 169.424 326.78 169.79 328.82 171.02 330.331 C 191.124 354.984 227.676 357.484 250.055 336.931 C 261.942 326.015 268.528 311.633 269.822 293.779 C 270.072 290.273 268.454 288.246 264.974 287.698 L 263.855 287.513 C 261.822 287.195 259.905 288.55 259.528 290.571 C 254.781 315.012 244.498 330.021 228.682 335.589 C 209.089 342.478 193.127 337.939 180.793 321.975 Z" style=""></path>
  <path fill="#ffffff" d="M 676.818 247.753 C 677.553 248.778 678.911 249.126 680.025 248.574 C 692.582 242.431 705.002 236.701 717.286 231.379 C 721.613 229.489 726.138 228.184 730.862 227.462 C 732.764 227.179 733.647 224.942 732.45 223.436 C 732.419 223.397 732.387 223.359 732.354 223.323 C 723.95 213.874 714.663 203.977 704.492 193.633 C 680.149 168.892 652.885 150.965 622.698 139.849 C 620.385 138.979 619.342 137.314 619.565 134.852 L 619.715 133.36 C 619.864 131.544 620.833 130.811 622.624 131.159 C 626.901 132.004 631.003 133.311 634.932 135.075 C 680.71 155.589 716.926 186.136 743.582 226.716 C 746.366 230.969 745.247 233.517 740.224 234.363 C 718.74 238.055 695.13 249.953 676.072 259.09 C 674.552 259.832 672.717 259.279 671.857 257.823 C 637.966 201.429 586.133 172.161 516.362 170.024 C 514.148 169.949 512.93 168.818 512.707 166.629 C 512.656 166.008 512.707 165.374 512.856 164.728 C 513.162 163.547 514.189 162.7 515.391 162.638 C 583.61 159.655 638.438 192.477 676.818 247.753 Z" style=""></path>
  <path fill="#ffffff" d="M 449.262 279.94 C 439.342 283.819 428.699 289.005 417.336 295.494 C 416.444 295.991 415.32 295.564 414.986 294.599 L 414.538 293.406 C 413.902 291.599 414.542 289.59 416.105 288.482 C 447.809 266.253 483.03 258.233 521.771 264.425 C 540.605 267.446 562.126 278.486 573.166 295.084 C 585.587 313.808 581.036 339.654 570.593 358.267 C 569.648 359.908 568.244 360.728 566.378 360.728 L 565.222 360.728 C 564.369 360.747 563.782 359.866 564.103 359.05 C 577.579 325.456 574.273 301.834 554.182 288.183 C 522.851 266.886 483.539 266.513 449.262 279.94 Z" style=""></path>
  <path fill="#ffffff" d="M 708.446 345.883 C 712.474 379.601 707.477 409.924 687.112 437.712 C 686.067 439.103 685.011 439.128 683.942 437.786 C 683.569 437.289 683.307 436.741 683.158 436.145 C 682.686 434.181 682.959 432.315 683.979 430.549 C 700.564 401.855 705.002 370.837 697.294 337.492 C 697.062 336.492 697.717 335.509 698.711 335.365 L 791.36 321.678 C 792.9 321.452 794.338 322.494 794.604 324.028 C 797.191 338.349 798.869 352.982 799.64 367.926 C 802.511 423.539 783.826 478.03 749.399 520.811 C 742.438 529.464 734.953 536.613 726.946 542.257 C 725.631 543.159 723.82 542.517 723.365 540.989 C 722.72 538.777 723.155 536.862 724.67 535.246 C 778.007 478.403 801.206 412.385 786.549 333.65 C 786.319 332.441 785.16 331.65 783.974 331.897 C 759.707 336.671 735.438 340.215 711.169 342.527 C 709.105 342.701 708.198 343.82 708.446 345.883 Z" style=""></path>
  <path fill="#ffffff" d="M 538.927 376.654 C 503.755 352.933 452.731 362.891 436.73 404.629 C 435.885 406.89 434.679 407.102 433.113 405.262 L 432.069 404.105 C 430.967 402.822 430.665 401.04 431.286 399.48 C 444.563 365.018 477.05 352.448 512.744 357.334 C 521.944 358.601 530.399 362.282 538.106 368.374 C 539.848 369.742 541.116 371.544 541.911 373.782 C 542.134 374.454 542.109 375.126 541.837 375.796 C 541.366 376.951 539.947 377.369 538.927 376.654 Z" style=""></path>
  <path fill="#ffffff" d="M 369.222 368.45 C 357.621 382.808 354.34 399.107 352.996 418.689 C 352.948 419.387 352.473 419.981 351.803 420.181 C 350.634 420.529 349.702 420.243 349.005 419.323 C 347.713 417.557 347.016 415.556 346.917 413.319 C 346.221 396.285 350.821 380.582 360.717 366.211 C 362.086 364.247 363.912 363.575 366.2 364.197 L 368.028 364.682 C 369.654 365.126 370.282 367.107 369.222 368.45 Z" style=""></path>
  <path fill="#ffffff" d="M 598.79 464.081 C 599.944 463.53 601.335 463.854 602.147 464.865 C 603.44 466.505 603.017 468.581 600.879 471.094 C 600.364 471.705 599.714 472.191 598.977 472.51 C 553.572 491.83 509.275 497.562 466.084 489.705 C 448.654 486.547 434.058 478.64 422.297 465.984 C 420.854 464.417 420.654 462.7 421.699 460.835 L 422.408 459.642 C 422.882 458.786 424.045 458.605 424.795 459.269 C 441.828 474.835 462.217 483.302 485.965 484.669 C 526.021 486.982 563.631 480.118 598.79 464.081 Z" style=""></path>
  <path fill="#ffffff" d="M 622.512 588.88 C 624.85 588.482 625.47 587.227 624.376 585.112 L 595.582 529.65 C 594.24 527.09 595.023 525.772 597.932 525.696 L 599.649 525.659 C 602.384 525.585 604.386 526.766 605.653 529.203 L 638.065 591.864 C 638.91 593.48 638.45 594.499 636.685 594.921 C 599.212 603.948 562.699 602.979 527.141 592.013 C 519.755 589.725 513.042 586.73 507 583.024 C 505.036 581.83 504.489 580.177 505.359 578.063 L 505.918 576.721 C 506.368 575.583 507.714 575.083 508.828 575.638 C 521.161 581.83 530.523 585.61 536.913 586.977 C 565.857 593.144 594.389 593.778 622.512 588.88 Z" style=""></path>
</svg>